<?xml version="1.0" encoding="UTF-8"?>
<svg width="183px" height="28px" viewBox="0 0 183 28" version="1.1" xmlns="http://www.w3.org/2000/svg" xmlns:xlink="http://www.w3.org/1999/xlink">
    <!-- Generator: Sketch 52.5 (67469) - http://www.bohemiancoding.com/sketch -->
    <title>invotra-top-bar-branding-region</title>
    <desc>Created with Sketch.</desc>
    <g id="Invotra-Components" stroke="none" stroke-width="1" fill="none" fill-rule="evenodd">
        <g id="Top-Bar-Brand-Logo" transform="translate(-368.000000, -352.000000)">
            <g id="invotra-top-bar-branding-region" transform="translate(366.000000, 351.000000)">
                <g id="Invotra-Labs-Symbol-Fill" transform="translate(2.000000, 1.000000)">
                    <g id="Invotra-Labs-Symbol">
                        <path d="M14,28 C6.2678913,28 0,21.7319565 0,14 C0,6.2678913 6.2678913,0 14,0 C21.7321087,0 28,6.2678913 28,13.9998478 C28,21.7319565 21.7321087,28 14,28 Z" id="Stroke-3" fill="#222D3A"></path>
                        <polygon id="Fill-5" stroke="#FFFFFF" stroke-width="0.933333333" points="12.6168061 10.7593769 11.25 10 8.5 11.5040187 8.5 14.5113118 11.25 16 14 14.5113118 14 11.5040187"></polygon>
                        <polygon id="Fill-7" stroke="#FFFFFF" stroke-width="0.933333333" points="15.61716 15.744493 14.2502364 15 11.5 16.4886882 11.5 19.4959813 14.2502364 21 17 19.4959813 17 16.4886882"></polygon>
                        <polygon id="Fill-9" stroke="#FFFFFF" stroke-width="0.933333333" points="18.1331156 10.7440464 16.7498424 10 14 11.4886882 14 14.4959813 16.7498424 16 19.5 14.4959813 19.5 11.4886882"></polygon>
                        <polygon id="Fill-11" stroke="#FFFFFF" stroke-width="0.933333333" points="21.11716 15.744493 19.7502364 15 17 16.4886882 17 19.4959813 19.7502364 21 22.5 19.4959813 22.5 16.4886882"></polygon>
                        <polygon id="Fill-13" stroke="#FFFFFF" stroke-width="0.933333333" points="10.117042 15.744493 8.75015758 15 6 16.4886882 6 19.4959813 8.75015758 21 11.5 19.4959813 11.5 16.4886882"></polygon>
                        <polygon id="Fill-15" stroke="#FFFFFF" stroke-width="0.933333333" points="15.61716 5.74464179 14.2502364 5 11.5 6.48868823 11.5 9.49613018 14.2502364 11 17 9.49613018 17 6.48868823"></polygon>
                        <path d="M13,7.5 L15,6.5" id="Stroke-17" stroke="#FFFFFF" stroke-width="0.5" stroke-linecap="round"></path>
                        <path d="M9.5,12.5 L11.5,11.5" id="Stroke-19" stroke="#FFFFFF" stroke-width="0.5" stroke-linecap="round"></path>
                        <path d="M15.5,12.5 L17.5,11.5" id="Stroke-21" stroke="#FFFFFF" stroke-width="0.5" stroke-linecap="round"></path>
                        <path d="M12.5,17.5 L14.5,16.5" id="Stroke-23" stroke="#FFFFFF" stroke-width="0.5" stroke-linecap="round"></path>
                        <path d="M7.5,17.5 L9.5,16.5" id="Stroke-25" stroke="#FFFFFF" stroke-width="0.5" stroke-linecap="round"></path>
                        <path d="M18.5,17.5 L20.5,16.5" id="Stroke-27" stroke="#FFFFFF" stroke-width="0.5" stroke-linecap="round"></path>
                    </g>
                </g>
                <g id="Group" transform="translate(37.000000, 3.000000)" fill="#222D3A">
                    <path d="M7.22636465,6.67512857 C8.00087628,6.45312857 9.0077414,6.24184286 10.2473879,6.04212857 C11.4857507,5.84284286 12.8580484,5.7417 14.3629972,5.7417 C15.7789414,5.7417 16.96296,5.93627143 17.9146251,6.32541429 C18.8654344,6.71412857 19.6245414,7.25755714 20.1885228,7.95698571 C20.7520763,8.65727143 21.1508856,9.50155714 21.3832391,10.4885571 C21.6155926,11.4785571 21.7315553,12.5602714 21.7315553,13.7375571 L21.7315553,23.5312714 L17.7160763,23.5312714 L17.7160763,14.3701286 C17.7160763,13.4375571 17.6540298,12.6438429 17.5329321,11.9881286 C17.4114065,11.3341286 17.2124298,10.8014143 16.935574,10.3895571 C16.6578623,9.97898571 16.2825879,9.67941429 15.8063274,9.48998571 C15.330067,9.30184286 14.7498251,9.2067 14.0643181,9.2067 C13.5551088,9.2067 13.0236484,9.2397 12.4712205,9.30655714 C11.9175088,9.37341429 11.5088577,9.42955714 11.2431274,9.47412857 L11.2431274,23.5312714 L7.22636465,23.5312714 L7.22636465,6.67512857 Z" id="Fill-1"></path>
                    <path d="M28.1837935,23.5313143 C27.0720912,21.2444571 25.9334307,18.6181714 24.7678121,15.6537429 C23.600054,12.6884571 22.5397005,9.50631429 21.5841842,6.1086 L25.867533,6.1086 C26.1118679,7.0866 26.3951423,8.13531429 26.7169284,9.25645714 C27.0391423,10.3788857 27.3836074,11.5000286 27.7503237,12.6216 C28.1174679,13.7427429 28.494454,14.8317429 28.8842772,15.8860286 C29.2728167,16.9416 29.6331144,17.8908857 29.9673098,18.7347429 C30.2993656,17.8913143 30.6558121,16.9416 31.033654,15.8860286 C31.4110679,14.8317429 31.7824912,13.7427429 32.1500633,12.6216 C32.5159237,11.5000286 32.8659516,10.3788857 33.1997191,9.25645714 C33.5326307,8.13574286 33.8218958,7.0866 34.0658028,6.1086 L38.2165005,6.1086 C37.2614121,9.50631429 36.2002028,12.6884571 35.0337284,15.6537429 C33.8663981,18.6181714 32.7285935,21.2444571 31.617747,23.5313143 L28.1837935,23.5313143 Z" id="Fill-3"></path>
                    <path d="M50.9393302,14.8037571 C50.9393302,13.0710429 50.5452279,11.6996143 49.7574512,10.6890429 C48.9692465,9.67932857 47.8712372,9.17361429 46.4604279,9.17361429 C45.0491907,9.17361429 43.9507535,9.67932857 43.1625488,10.6890429 C42.3752,11.7004714 41.9819535,13.0714714 41.9819535,14.8037571 C41.9819535,16.5583286 42.3752,17.9460429 43.1625488,18.9681857 C43.9507535,19.9894714 45.0491907,20.4999 46.4604279,20.4999 C47.8712372,20.4999 48.9692465,19.9894714 49.7574512,18.9681857 C50.5452279,17.9460429 50.9393302,16.5583286 50.9393302,14.8037571 M55.3116837,14.8037571 C55.3116837,16.1807571 55.1002977,17.4356143 54.6766698,18.5683286 C54.2534698,19.7010429 53.6548279,20.6666143 52.8786047,21.4667571 C52.1028093,22.2660429 51.1682605,22.8879 50.075386,23.3314714 C48.9820837,23.7754714 47.7762419,23.9974714 46.4604279,23.9974714 C45.1433302,23.9974714 43.9443349,23.7754714 42.863014,23.3314714 C41.781693,22.8879 40.852707,22.2660429 40.0777674,21.4667571 C39.3015442,20.6666143 38.6964837,19.7006143 38.2613023,18.5683286 C37.825693,17.4356143 37.6091721,16.1807571 37.6091721,14.8037571 C37.6091721,13.4267571 37.825693,12.1779 38.2613023,11.0559 C38.6964837,9.93432857 39.307107,8.97347143 40.0953116,8.17418571 C40.8818047,7.3749 41.8172093,6.75861429 42.8985302,6.32532857 C43.9789953,5.89247143 45.167293,5.67561429 46.4604279,5.67561429 C47.752707,5.67561429 48.9461395,5.89247143 50.0394419,6.32532857 C51.1336,6.75861429 52.067293,7.3749 52.8430884,8.17418571 C53.6193116,8.97347143 54.2239442,9.93432857 54.6595535,11.0559 C55.0938791,12.1779 55.3116837,13.4267571 55.3116837,14.8037571" id="Fill-5"></path>
                    <polygon id="Fill-7" points="79.6295516 9.8463 79.6286958 9.8463 79.62784 9.8463"></polygon>
                    <path d="M88.1229488,20.4999 C88.1229488,20.6336143 86.618,20.6996143 85.3787814,20.6996143 C84.3612186,20.6996143 83.5926977,20.5166143 82.9944837,20.1501857 C82.3979814,19.7833286 82.1181302,19.1229 82.1181302,18.1684714 C82.1181302,17.6794714 82.2388,17.2744714 82.4604558,16.9521857 C82.6804,16.6311857 82.9790791,16.3813286 83.3445116,16.2026143 C83.7095163,16.0247571 84.1207349,15.9026143 84.5751721,15.8366143 C85.0283256,15.7697571 85.4776279,15.7359 85.9209395,15.7359 C86.4301488,15.7359 86.8165488,15.7697571 87.2371814,15.8366143 C87.657814,15.9026143 88.1229488,15.9694714 88.1229488,16.0363286 L88.1229488,20.4999 Z M91.6125302,9.75647143 C91.3801767,8.9019 91.0930512,8.17418571 90.550893,7.57418571 C90.008307,6.97461429 89.3343535,6.50832857 88.4276186,6.17532857 C87.5204558,5.8419 86.4280093,5.67561429 85.100214,5.67561429 C83.9940744,5.67561429 82.9345767,5.76475714 81.9610884,5.94218571 C81.0389488,6.11061429 80.8485302,6.27861429 79.8091442,6.44661429 L79.8091442,6.44147143 C79.3936465,6.32747143 79.1133674,6.20361429 78.7804558,6.12561429 C78.4496837,6.04804286 78.121907,5.98118571 77.7680279,5.92547143 C77.4141488,5.87018571 77.0675442,5.82561429 76.714093,5.79175714 C76.359786,5.75875714 76.0538326,5.74204286 75.7885302,5.74204286 C74.3717302,5.74204286 73.1273767,5.87018571 71.9656093,6.12561429 C70.8042698,6.38104286 70.145293,6.65275714 69.1063349,6.94118571 L69.1063349,19.5141857 C67.9505581,19.8210429 67.3129767,20.0027571 66.718614,20.1471857 C66.1537767,20.3023286 64.8546512,20.4669 64.124214,20.4669 C63.0621488,20.4669 62.0522884,20.1673286 61.6098326,19.5673286 C61.1665209,18.9681857 60.6885488,17.9683286 60.6885488,16.5690429 L60.6885488,9.21132857 L66.7344465,9.21132857 L66.7344465,5.66575714 L60.6885488,5.66575714 L60.6885488,0.845614286 L56.8737581,1.55404286 L56.8737581,16.6449 C56.8737581,17.7999 57.0303721,18.8267571 57.2293488,19.7267571 C57.4287535,20.6263286 57.978186,21.3497571 58.4647163,21.9823286 C58.9512465,22.6153286 59.6243442,23.0983286 60.4540558,23.4321857 C61.2833395,23.7647571 62.3257209,23.9314714 63.5645116,23.9314714 C64.5825023,23.9314714 65.5132,23.8260429 66.2663163,23.6151857 C66.7896465,23.4681857 67.5478977,23.3481857 69.1354326,22.6856143 L69.1063349,23.7077571 L73.158614,23.7077571 L73.158614,9.57347143 C73.158614,9.50661429 73.6455721,9.42904286 74.1432279,9.34032857 C74.6413116,9.25161429 75.0807721,9.20661429 75.5240837,9.20661429 C76.2985953,9.20661429 76.9639907,9.26832857 77.5502233,9.39004286 C78.1360279,9.51218571 79.1065209,10.0059 79.7291256,10.5266143 C80.2905395,9.83704286 81.5220558,9.38532857 82.174186,9.27347143 C82.9478419,9.14018571 83.7993767,9.07375714 84.7283628,9.07375714 C85.4138698,9.07375714 85.9838419,9.16247143 86.4378512,9.34032857 C86.8901488,9.51818571 87.2555814,9.76804286 87.5324372,10.0894714 C87.8088651,10.4113286 87.9244,10.7841857 88.0348,11.2050429 C88.1456279,11.6276143 88.1229488,12.0720429 88.1229488,12.5383286 L88.1229488,13.2043286 C88.1229488,13.0710429 87.1276372,12.9767571 86.6402512,12.9210429 C86.153293,12.8661857 85.7275256,12.8374714 85.2854977,12.8374714 C84.3338326,12.8374714 83.4407907,12.9326143 82.5670047,13.1207571 C81.691507,13.3101857 80.9332558,13.6204714 80.2691442,14.0541857 C79.6054605,14.4870429 79.0851256,15.0480429 78.6974419,15.7359 C78.310186,16.4241857 78.1184837,17.2689 78.1184837,18.2679 C78.1184837,19.3119 78.291786,20.1887571 78.6345395,20.8993286 C78.9781488,21.6107571 79.4539814,22.1876143 80.0624651,22.6320429 C80.6713767,23.0769 81.4069488,23.3979 82.2704651,23.5980429 C83.1331256,23.7977571 84.0843628,23.8980429 85.1250326,23.8980429 C86.6967349,23.8980429 87.906,23.8029 89.1559163,23.6151857 C90.4062605,23.4261857 91.7601581,23.2650429 91.7601581,23.1317571 L91.7601581,12.5713286 C91.7601581,11.5500429 91.8448837,10.6114714 91.6125302,9.75647143 Z" id="Fill-9"></path>
                    <path d="M5.17626233,2.33918571 C5.17626233,3.0459 4.93706233,3.60775714 4.45994605,4.02347143 C3.98240186,4.43875714 3.41842047,4.64704286 2.76757395,4.64704286 C2.09404837,4.64704286 1.5193693,4.43875714 1.04225302,4.02347143 C0.564708837,3.60775714 0.325936744,3.0459 0.325936744,2.33918571 C0.325936744,1.6119 0.564708837,1.03975714 1.04225302,0.624042857 C1.5193693,0.208328571 2.09404837,4.28571429e-05 2.76757395,4.28571429e-05 C3.41842047,4.28571429e-05 3.98240186,0.208328571 4.45994605,0.624042857 C4.93706233,1.03975714 5.17626233,1.6119 5.17626233,2.33918571" id="Fill-11"></path>
                    <path d="M1.07062326,8.39361429 L1.07062326,23.5346143 L5.01934884,23.5346143 L5.01934884,7.1679 L5.01934884,7.16832857 C4.0176186,7.43147143 2.69067907,7.82318571 1.07062326,8.39361429" id="Fill-13"></path>
                </g>
                <path d="M136.93,26.64 C136.93,26.7800007 136.91,26.8749998 136.87,26.925 C136.83,26.9750003 136.730001,27 136.57,27 L136.06,27 C135.919999,27 135.83,26.9800002 135.79,26.94 C135.75,26.8999998 135.73,26.8200006 135.73,26.7 L135.73,5.04 C135.73,4.9199994 135.75,4.8400002 135.79,4.8 C135.83,4.7599998 135.9,4.74 136,4.74 L136.66,4.74 C136.76,4.74 136.83,4.7599998 136.87,4.8 C136.91,4.8400002 136.93,4.9199994 136.93,5.04 L136.93,26.64 Z M151.26,24.84 C149.619992,26.4800082 147.720011,27.3 145.56,27.3 C143.979992,27.3 142.735005,26.9100039 141.825,26.13 C140.914995,25.3499961 140.46,24.2900067 140.46,22.95 C140.46,19.9099848 142.929975,18.1800021 147.87,17.76 L151.02,17.49 C151.360002,17.4499998 151.53,17.3000013 151.53,17.04 L151.53,16.11 C151.53,14.8299936 151.125004,13.8150038 150.315,13.065 C149.504996,12.3149963 148.420007,11.94 147.06,11.94 C145.07999,11.94 143.400007,12.8599908 142.02,14.7 C141.98,14.7600003 141.935,14.8049999 141.885,14.835 C141.835,14.8650002 141.78,14.8600002 141.72,14.82 L141,14.37 C140.9,14.3099997 140.9,14.2100007 141,14.07 C141.680003,13.069995 142.529995,12.275003 143.55,11.685 C144.570005,11.0949971 145.759993,10.8 147.12,10.8 C148.820009,10.8 150.179995,11.2649953 151.2,12.195 C152.220005,13.1250047 152.73,14.389992 152.73,15.99 L152.73,26.7 C152.73,26.900001 152.630001,27 152.43,27 L151.89,27 C151.709999,27 151.62,26.9100009 151.62,26.73 L151.56,24.9 C151.54,24.7999995 151.505,24.7450001 151.455,24.735 C151.405,24.725 151.34,24.7599996 151.26,24.84 Z M151.53,19.02 C151.53,18.6999984 151.390001,18.5599998 151.11,18.6 L148.44,18.81 C146.119988,18.9900009 144.420005,19.4149966 143.34,20.085 C142.259995,20.7550034 141.72,21.6799941 141.72,22.86 C141.72,23.8800051 142.084996,24.684997 142.815,25.275 C143.545004,25.8650029 144.519994,26.16 145.74,26.16 C146.460004,26.16 147.174996,26.0300013 147.885,25.77 C148.595004,25.5099987 149.239997,25.1500023 149.82,24.69 C150.380003,24.2499978 150.804999,23.7850025 151.095,23.295 C151.385001,22.8049975 151.53,22.3300023 151.53,21.87 L151.53,19.02 Z M157.58,27 C157.459999,27 157.375,26.9700003 157.325,26.91 C157.275,26.8499997 157.25,26.7500007 157.25,26.61 L157.25,5.04 C157.25,4.839999 157.339999,4.74 157.52,4.74 L158.21,4.74 C158.370001,4.74 158.45,4.8499989 158.45,5.07 L158.45,12.66 C158.45,12.860001 158.49,12.96 158.57,12.96 C158.65,12.96 158.74,12.9100005 158.84,12.81 C159.380003,12.3299976 160.039996,11.8750022 160.82,11.445 C161.600004,11.0149979 162.659993,10.8 164,10.8 C166.180011,10.8 167.809995,11.5649924 168.89,13.095 C169.970005,14.6250077 170.51,16.589988 170.51,18.99 C170.51,21.5700129 169.905006,23.5999926 168.695,25.08 C167.484994,26.5600074 165.810011,27.3 163.67,27.3 C162.349993,27.3 161.285004,27.0450025 160.475,26.535 C159.664996,26.0249975 159.080002,25.5100026 158.72,24.99 C158.66,24.8899995 158.6,24.84 158.54,24.84 C158.46,24.84 158.42,24.9199992 158.42,25.08 L158.36,26.61 C158.36,26.7700008 158.33,26.8749998 158.27,26.925 C158.21,26.9750003 158.090001,27 157.91,27 L157.58,27 Z M158.45,21.69 C158.45,22.4700039 158.694998,23.2049966 159.185,23.895 C159.675002,24.5850034 160.314996,25.1349979 161.105,25.545 C161.895004,25.9550021 162.709996,26.16 163.55,26.16 C165.210008,26.16 166.569995,25.5500061 167.63,24.33 C168.690005,23.1099939 169.22,21.3300117 169.22,18.99 C169.22,16.8099891 168.750005,15.0900063 167.81,13.83 C166.869995,12.5699937 165.530009,11.94 163.79,11.94 C162.729995,11.94 161.735005,12.1799976 160.805,12.66 C159.874995,13.1400024 159.090003,13.7699961 158.45,14.55 L158.45,21.69 Z M183.76,14.22 C183.279998,13.4999964 182.635004,12.940002 181.825,12.54 C181.014996,12.139998 180.070005,11.94 178.99,11.94 C177.689994,11.94 176.625004,12.2249972 175.795,12.795 C174.964996,13.3650028 174.55,14.1199953 174.55,15.06 C174.55,15.6200028 174.764998,16.1299977 175.195,16.59 C175.625002,17.0500023 176.379995,17.4499983 177.46,17.79 L181.51,19.11 C182.670006,19.4900019 183.539997,19.9999968 184.12,20.64 C184.700003,21.2800032 184.99,22.0299957 184.99,22.89 C184.99,23.7300042 184.725003,24.4849966 184.195,25.155 C183.664997,25.8250033 182.940005,26.3499981 182.02,26.73 C181.099995,27.1100019 180.070006,27.3 178.93,27.3 C177.489993,27.3 176.190006,26.9950031 175.03,26.385 C173.869994,25.7749969 173.040003,24.970005 172.54,23.97 C172.48,23.8499994 172.5,23.7500004 172.6,23.67 L173.26,23.25 C173.380001,23.1699996 173.47,23.1799995 173.53,23.28 C174.070003,24.2000046 174.794995,24.9099975 175.705,25.41 C176.615005,25.9100025 177.689994,26.16 178.93,26.16 C180.290007,26.16 181.429995,25.8700029 182.35,25.29 C183.270005,24.7099971 183.73,23.9600046 183.73,23.04 C183.73,22.3599966 183.450003,21.7800024 182.89,21.3 C182.329997,20.8199976 181.430006,20.3900019 180.19,20.01 L177.1,19.05 C175.699993,18.6299979 174.715003,18.1050032 174.145,17.475 C173.574997,16.8449969 173.29,16.1200041 173.29,15.3 C173.29,13.9599933 173.829995,12.8750041 174.91,12.045 C175.990005,11.2149959 177.359992,10.8 179.02,10.8 C180.260006,10.8 181.379995,11.0399976 182.38,11.52 C183.380005,12.0000024 184.169997,12.6799956 184.75,13.56 C184.83,13.6600005 184.820001,13.7399997 184.72,13.8 L184.03,14.25 C183.909999,14.3300004 183.82,14.3200005 183.76,14.22 Z" id="labs" fill="#222D3A"></path>
            </g>
        </g>
    </g>
</svg>